<svg xmlns="http://www.w3.org/2000/svg" version="1.1" xmlns:xlink="http://www.w3.org/1999/xlink" xmlns:svgjs="http://svgjs.dev/svgjs" width="100%" height="100%" viewBox="0 0 1000 600"><rect width="1000" height="600" x="0" y="0" fill="#ffffff"/><g><circle r="166.66666666666666" cx="382.9666086832682" cy="405.1888954658607" fill="#000000" transform="matrix(0.5779010415951423,0,0,0.5779010415951423,0,65.84090938878042)"/><path d="M374.90335161220776 480.1889158380962L353.99285767562725 480.1889158380962L353.99285767562725 330.1889150531791L411.9403888430515 330.1889150531791L411.9403888430515 345.18377109872205L374.90335161220776 345.18377109872205L374.90335161220776 395.1837713603611L403.6070554661116 395.1837713603611L403.6070554661116 409.9985862526986L374.90335161220776 409.9985862526986L374.90335161220776 480.1889158380962Z " fill="#ffffff" transform="matrix(0.5779010415951423,0,0,0.5779010415951423,0,65.84090938878042)"/><path d="M653.4727592207126 478.5494299312438L632.9666220932855 478.5494299312438L632.9666220932855 331.4500551130946L653.4727592207126 331.4500551130946L653.4727592207126 400.81275757364165L687.2460896187754 331.4500551130946L706.3145270952022 331.4500551130946L677.2578604644567 396.27265341258766L711.0564136634141 478.5494299312438L691.0799553547765 478.5494299312438L662.9313095562419 409.5398466832232L653.4727592207126 426.6156828889651L653.4727592207126 478.5494299312438ZM741.9291219585813 478.5494299312438L722.4823424687332 478.5494299312438L722.4823424687332 373.5721326073177L741.9291219585813 373.5721326073177L741.9291219585813 478.5494299312438ZM741.9291219585813 357.959218853471L722.4823424687332 357.959218853471L722.4823424687332 337.629641332307L741.9291219585813 337.629641332307L741.9291219585813 357.959218853471ZM782.5882770009092 478.3728703249806L763.1667203119559 478.3728703249806L763.1667203119559 331.2734955068314L782.5882770009092 331.2734955068314L782.5882770009092 418.9731742178576L810.9387052066019 373.5721326073177L831.2682827277658 373.5721326073177L806.5751606518111 414.6348524639615L830.5368215018182 478.5494299312438L811.1152648128651 478.5494299312438L791.4919257167539 424.79964122454356L782.5882770009092 438.2433941014423L782.5882770009092 478.3728703249806ZM869.7582768931458 480.012352383139L869.7582768931458 480.012352383139Q857.4243272556157 480.012352383139 850.689839416719 475.19479741224285Q843.980574378717 470.37724244134665 841.3574030856636 461.0195833093965Q838.7090089917153 451.66192417744634 838.7090089917153 438.04161169428437L838.7090089917153 438.04161169428437L838.7090089917153 414.0799508442772Q838.7090089917153 400.1065191485888 841.4330714883478 390.82452841932286Q844.1571339849802 381.5677604909517 850.9672902265612 376.8510967236345Q857.7774464681421 372.1344329563173 869.7582768931458 372.1344329563173L869.7582768931458 372.1344329563173Q883.0254701637813 372.1344329563173 889.2807247856779 377.58255794958205Q895.5612022084692 383.03068294284685 897.553803479154 393.29636290700785Q899.5464047498389 403.536820070274 899.5464047498389 417.8885937793836L899.5464047498389 417.8885937793836L899.5464047498389 426.4391232827019L858.1557884815633 426.4391232827019L858.1557884815633 447.5001620298135Q858.1557884815633 453.85630785528906 859.3160373227216 457.8415103966587Q860.5015089647745 461.85193573892303 863.1499030587227 463.74364580602884Q865.7730743517761 465.6605786740294 869.9600593003037 465.6605786740294L869.9600593003037 465.6605786740294Q874.2983810541997 465.6605786740294 876.5684331347267 463.5670861997657Q878.8384852152536 461.47359372550187 879.6708376447802 457.5640595868165Q880.4779672734121 453.67974824902586 880.4779672734121 448.40818286202426L880.4779672734121 448.40818286202426L880.4779672734121 442.0520370365487L899.3698451435756 442.0520370365487L899.3698451435756 446.03723957791834Q899.3698451435756 461.85193573892303 892.6605801055736 470.932144061031Q885.9260922666768 480.012352383139 869.7582768931458 480.012352383139ZM858.1557884815633 410.2713079091708L858.1557884815633 415.8959925086988L880.4779672734121 415.8959925086988L880.4779672734121 406.4626649740644Q880.4779672734121 399.90473674143084 879.7465060474644 395.46552378395586Q879.0402676224116 391.0263108264808 876.7702155418847 388.75625874595386Q874.5001634613576 386.48620666542683 869.5817172868825 386.48620666542683L869.5817172868825 386.48620666542683Q864.8650535195653 386.48620666542683 862.4184418327751 388.65536754237485Q859.9718301459849 390.82452841932286 859.0638093137742 396.0204254036402Q858.1557884815633 401.1910995870628 858.1557884815633 410.2713079091708L858.1557884815633 410.2713079091708ZM962.3764017786469 478.5494299312438L944.4177675415891 478.5494299312438L911.5272351748424 331.4500551130946L930.7974550584271 331.4500551130946L954.0276546824867 439.85765335870593L976.198496668967 331.4500551130946L994.8885921319726 331.4500551130946L962.3764017786469 478.5494299312438ZM1029.5699433622462 478.5494299312438L1010.148386673293 478.5494299312438L1010.148386673293 373.5721326073177L1029.5699433622462 373.5721326073177L1029.5699433622462 478.5494299312438ZM1029.5699433622462 357.959218853471L1010.148386673293 357.959218853471L1010.148386673293 337.629641332307L1029.5699433622462 337.629641332307L1029.5699433622462 357.959218853471ZM1086.7752557915264 480.18891198940224L1086.7752557915264 480.18891198940224Q1074.0629641405753 480.18891198940224 1065.6385486417307 474.7407869961374Q1057.1889103419912 469.29266200287265 1052.8253657872006 459.65755206108025Q1048.4618212324099 450.0476649201827 1047.730360006462 437.3353732692315L1047.730360006462 437.3353732692315L1065.8907766506782 432.4169270947564Q1066.4456782703624 440.2359953721271 1068.3626111383628 447.5001620298135Q1070.2543212054688 454.76432868749987 1074.6178657602595 459.3801012512381Q1078.9814103150502 464.02109661587104 1086.7752557915264 464.02109661587104L1086.7752557915264 464.02109661587104Q1094.7708836751603 464.02109661587104 1098.8569774201087 459.58188365839607Q1102.9430711650575 455.1174479000263 1102.9430711650575 446.7687008038659L1102.9430711650575 446.7687008038659Q1102.9430711650575 436.7804716495471 1098.4029670040036 430.70177663391377Q1093.8628628429497 424.62308161828037 1086.977038198684 418.44349539906796L1086.977038198684 418.44349539906796L1062.258693321835 396.6509954260088Q1054.9945266641485 390.29484960053327 1051.5642257424633 382.7532321330047Q1048.1087020198834 375.21161466547613 1048.1087020198834 364.13880507268334L1048.1087020198834 364.13880507268334Q1048.1087020198834 347.9709896991522 1057.3654699482545 339.0673409833074Q1066.6222378766256 330.1889150683574 1082.6134936438934 330.1889150683574L1082.6134936438934 330.1889150683574Q1091.3153599525804 330.1889150683574 1097.948956587898 332.45896714888437Q1104.582553223216 334.7290192294114 1109.021766180691 339.4456829967286Q1113.4862019390607 344.16234676404576 1116.1093732321142 351.3256222181532Q1118.757767326062 358.5141204731553 1119.6657881582728 368.1240076140529L1119.6657881582728 368.1240076140529L1102.21160993911 372.86589418226487Q1101.6819311203203 365.6017275245785 1100.0424490621617 359.49780970805034Q1098.4029670040036 353.41911469241694 1094.3168732590548 349.7113629608895Q1090.2307795141064 345.9783884284674 1082.6134936438934 345.9783884284674L1082.6134936438934 345.9783884284674Q1074.970984972786 345.9783884284674 1070.7083316215744 350.06448217341597Q1066.4456782703624 354.15057591836455 1066.4456782703624 362.1462038019985L1066.4456782703624 362.1462038019985Q1066.4456782703624 368.8554688400005 1068.7157303508893 373.2190133947913Q1070.9857824314163 377.58255794958205 1076.0807882121549 382.1226621106361L1076.0807882121549 382.1226621106361L1100.9504698943729 403.9151620836952Q1109.2992169905328 411.1793287413816 1115.6553628160086 421.2432262983846Q1122.0115086414844 431.33234665628237 1122.0115086414844 445.12921874570753L1122.0115086414844 445.12921874570753Q1122.0115086414844 456.02546873223713 1117.4714044804305 463.9202054122921Q1112.931300319376 471.8401648932418 1105.0365636393212 476.00192704087465Q1097.1418269592664 480.18891198940224 1086.7752557915264 480.18891198940224ZM1214.2765143144593 480.18891198940224L1214.2765143144593 480.18891198940224Q1201.5642226635082 480.18891198940224 1193.1145843637687 474.7407869961374Q1184.6649460640292 469.29266200287265 1180.3014015092385 459.65755206108025Q1175.9630797553427 450.0476649201827 1175.2316185293948 437.3353732692315L1175.2316185293948 437.3353732692315L1193.392035173611 432.4169270947564Q1193.9217139924003 440.2359953721271 1195.8386468604012 447.5001620298135Q1197.7555797284017 454.76432868749987 1202.0939014822975 459.3801012512381Q1206.4574460370886 464.02109661587104 1214.2765143144593 464.02109661587104L1214.2765143144593 464.02109661587104Q1222.2721421980932 464.02109661587104 1226.3582359430416 459.58188365839607Q1230.4443296879904 455.1174479000263 1230.4443296879904 446.7687008038659L1230.4443296879904 446.7687008038659Q1230.4443296879904 436.7804716495471 1225.9042255269364 430.70177663391377Q1221.3641213658825 424.62308161828037 1214.4530739207225 418.44349539906796L1214.4530739207225 418.44349539906796L1189.7599518447678 396.6509954260088Q1182.4957851870813 390.29484960053327 1179.0402614645013 382.7532321330047Q1175.5847377419213 375.21161466547613 1175.5847377419213 364.13880507268334L1175.5847377419213 364.13880507268334Q1175.5847377419213 347.9709896991522 1184.8415056702925 339.0673409833074Q1194.1234963995585 330.1889150683574 1210.0895293659314 330.1889150683574L1210.0895293659314 330.1889150683574Q1218.8166184755132 330.1889150683574 1225.4502151108309 332.45896714888437Q1232.058588945254 334.7290192294114 1236.5230247036238 339.4456829967286Q1240.9622376610987 344.16234676404576 1243.610631755047 351.3256222181532Q1246.2338030481005 358.5141204731553 1247.1418238803112 368.1240076140529L1247.1418238803112 368.1240076140529L1229.712868462043 372.86589418226487Q1229.1579668423583 365.6017275245785 1227.5184847842002 359.49780970805034Q1225.9042255269364 353.41911469241694 1221.8181317819876 349.7113629608895Q1217.7320380370393 345.9783884284674 1210.0895293659314 345.9783884284674L1210.0895293659314 345.9783884284674Q1202.4722434957189 345.9783884284674 1198.2095901445068 350.06448217341597Q1193.9217139924003 354.15057591836455 1193.9217139924003 362.1462038019985L1193.9217139924003 362.1462038019985Q1193.9217139924003 368.8554688400005 1196.1917660729273 373.2190133947913Q1198.4618181534547 377.58255794958205 1203.5568239341928 382.1226621106361L1203.5568239341928 382.1226621106361L1228.4265056164109 403.9151620836952Q1236.8004755134662 411.1793287413816 1243.1566213389415 421.2432262983846Q1249.5127671644173 431.33234665628237 1249.5127671644173 445.12921874570753L1249.5127671644173 445.12921874570753Q1249.5127671644173 456.02546873223713 1244.9726630033633 463.9202054122921Q1240.432558842309 471.8401648932418 1232.5125993613592 476.00192704087465Q1224.6178626813044 480.18891198940224 1214.2765143144593 480.18891198940224ZM1291.8114042649036 480.012352383139L1291.8114042649036 480.012352383139Q1283.6392167750064 480.012352383139 1278.6451021978469 476.9099478730854Q1273.6509876206874 473.83276616392664 1271.3809355401604 468.20808156439864Q1269.1108834596334 462.5581741639759 1269.1108834596334 454.94088829376307L1269.1108834596334 454.94088829376307L1269.1108834596334 386.48620666542683L1258.038073866841 386.48620666542683L1258.038073866841 373.5721326073177L1269.1108834596334 373.5721326073177L1269.1108834596334 342.90120671930856L1288.5576629494813 342.90120671930856L1288.5576629494813 373.5721326073177L1305.4317167480654 373.5721326073177L1305.4317167480654 386.48620666542683L1288.5576629494813 386.48620666542683L1288.5576629494813 453.67974824902586Q1288.5576629494813 459.8341116673435 1290.5502642201664 462.48250576129163Q1292.542865490851 465.1056770543451 1298.1675500903789 465.1056770543451L1298.1675500903789 465.1056770543451Q1299.6304725422742 465.1056770543451 1301.5221826093798 464.92911744808185Q1303.4391154773807 464.75255784181866 1305.255157141802 464.57599823555546L1305.255157141802 464.57599823555546L1305.255157141802 478.9025491437703Q1301.6230738129589 479.45745076345463 1298.5458921038003 479.7349015732968Q1295.4434875937468 480.012352383139 1291.8114042649036 480.012352383139ZM1348.6635974816572 480.012352383139L1348.6635974816572 480.012352383139Q1337.03588626918 480.012352383139 1330.3266212311783 475.27046581492704Q1323.5921333922815 470.55380204760985 1320.7924024929648 461.85193573892303Q1317.9674487927532 453.1248466293415 1317.9674487927532 441.32057581060116L1317.9674487927532 441.32057581060116L1317.9674487927532 410.80098672796044Q1317.9674487927532 398.9967159092201 1320.7924024929648 390.29484960053327Q1323.5921333922815 381.5677604909517 1330.3266212311783 376.8510967236345Q1337.03588626918 372.1344329563173 1348.6635974816572 372.1344329563173L1348.6635974816572 372.1344329563173Q1360.2913086941344 372.1344329563173 1366.8996825285572 376.8510967236345Q1373.5332791638752 381.5677604909517 1376.3582328640864 390.29484960053327Q1379.1579637634031 398.9967159092201 1379.1579637634031 410.80098672796044L1379.1579637634031 410.80098672796044L1379.1579637634031 441.32057581060116Q1379.1579637634031 453.1248466293415 1376.3582328640864 461.85193573892303Q1373.5332791638752 470.55380204760985 1366.8996825285572 475.27046581492704Q1360.2913086941344 480.012352383139 1348.6635974816572 480.012352383139ZM1348.6635974816572 465.6605786740294L1348.6635974816572 465.6605786740294Q1354.2882820811851 465.6605786740294 1356.558334161712 462.3816145577127Q1358.828386242239 459.12787324229066 1359.2823966583446 453.7554166517101Q1359.7364070744502 448.40818286202426 1359.7364070744502 442.58171585533836L1359.7364070744502 442.58171585533836L1359.7364070744502 409.71640628948643Q1359.7364070744502 403.738602477432 1359.2823966583446 398.46703709043044Q1358.828386242239 393.19547170342884 1356.558334161712 389.84083918442786Q1354.2882820811851 386.48620666542683 1348.6635974816572 386.48620666542683L1348.6635974816572 386.48620666542683Q1343.0389128821294 386.48620666542683 1340.6679695980233 389.84083918442786Q1338.2970263139173 393.19547170342884 1337.8430158978117 398.46703709043044Q1337.3890054817066 403.738602477432 1337.3890054817066 409.71640628948643L1337.3890054817066 409.71640628948643L1337.3890054817066 442.58171585533836Q1337.3890054817066 448.40818286202426 1337.8430158978117 453.7554166517101Q1338.2970263139173 459.12787324229066 1340.6679695980233 462.3816145577127Q1343.0389128821294 465.6605786740294 1348.6635974816572 465.6605786740294ZM1416.9417195037304 478.5494299312438L1397.520162814777 478.5494299312438L1397.520162814777 373.5721326073177L1416.9417195037304 373.5721326073177L1416.9417195037304 388.47880793611165Q1422.7429637095215 378.8436979943193 1428.5694307162075 375.5899566788973Q1434.3706749219987 372.3109925625805 1440.1971419286847 372.3109925625805L1440.1971419286847 372.3109925625805Q1440.9033803537377 372.3109925625805 1441.559173177001 372.3109925625805Q1442.1897431993693 372.3109925625805 1443.2743236378433 372.4875521688437L1443.2743236378433 372.4875521688437L1443.2743236378433 393.92693292937645Q1441.1051627608954 393.01891209716564 1438.2802090606838 392.38834207479704Q1435.4552553604726 391.73254925153367 1432.5546332575768 391.73254925153367L1432.5546332575768 391.73254925153367Q1428.014529096523 391.73254925153367 1424.3067773649955 393.82604172579744Q1420.5738028325736 395.91953420006126 1416.9417195037304 401.9225608130104L1416.9417195037304 401.9225608130104L1416.9417195037304 478.5494299312438ZM1484.3118206935924 480.012352383139L1484.3118206935924 480.012352383139Q1471.9778710560627 480.012352383139 1465.2433832171655 475.19479741224285Q1458.5341181791637 470.37724244134665 1455.8857240852158 461.0195833093965Q1453.2625527921623 451.66192417744634 1453.2625527921623 438.04161169428437L1453.2625527921623 438.04161169428437L1453.2625527921623 414.0799508442772Q1453.2625527921623 400.1065191485888 1455.9866152887944 390.82452841932286Q1458.710677785427 381.5677604909517 1465.5208340270078 376.8510967236345Q1472.3309902685887 372.1344329563173 1484.3118206935924 372.1344329563173L1484.3118206935924 372.1344329563173Q1497.5790139642281 372.1344329563173 1503.8342685861244 377.58255794958205Q1510.114746008916 383.03068294284685 1512.1073472796006 393.29636290700785Q1514.0999485502857 403.536820070274 1514.0999485502857 417.8885937793836L1514.0999485502857 417.8885937793836L1514.0999485502857 426.4391232827019L1472.6841094811152 426.4391232827019L1472.6841094811152 447.5001620298135Q1472.6841094811152 453.85630785528906 1473.8695811231682 457.8415103966587Q1475.0550527652213 461.85193573892303 1477.6782240582747 463.74364580602884Q1480.326618152223 465.6605786740294 1484.4883802998556 465.6605786740294L1484.4883802998556 465.6605786740294Q1488.8519248546463 465.6605786740294 1491.1219769351733 463.5670861997657Q1493.3920290157002 461.47359372550187 1494.2243814452272 457.5640595868165Q1495.0315110738588 453.67974824902586 1495.0315110738588 448.40818286202426L1495.0315110738588 448.40818286202426L1495.0315110738588 442.0520370365487L1513.9233889440225 442.0520370365487L1513.9233889440225 446.03723957791834Q1513.9233889440225 461.85193573892303 1507.1889011051258 470.932144061031Q1500.479636067124 480.012352383139 1484.3118206935924 480.012352383139ZM1472.6841094811152 410.2713079091708L1472.6841094811152 415.8959925086988L1495.0315110738588 415.8959925086988L1495.0315110738588 406.4626649740644Q1495.0315110738588 399.90473674143084 1494.3000498479114 395.46552378395586Q1493.568588621964 391.0263108264808 1491.2985365414365 388.75625874595386Q1489.0284844609096 386.48620666542683 1484.1352610873291 386.48620666542683L1484.1352610873291 386.48620666542683Q1479.418597320012 386.48620666542683 1476.9719856332217 388.65536754237485Q1474.500151145537 390.82452841932286 1473.5921303133264 396.0204254036402Q1472.6841094811152 401.1910995870628 1472.6841094811152 410.2713079091708L1472.6841094811152 410.2713079091708Z " fill="#000000" transform="matrix(0.5779010415951423,0,0,0.5779010415951423,0,65.84090938878042)"/></g></svg>